<svg width="25" height="24" viewBox="0 0 25 24" fill="none" xmlns="http://www.w3.org/2000/svg">
<path d="M21.4705 11.5189L18.7445 10.7399C17.5169 10.3939 16.3987 9.73852 15.4968 8.83664C14.5949 7.93477 13.9396 6.81653 13.5935 5.58894L12.8145 2.86294C12.7753 2.76757 12.7087 2.686 12.623 2.62859C12.5374 2.57118 12.4366 2.54053 12.3335 2.54053C12.2304 2.54053 12.1296 2.57118 12.044 2.62859C11.9583 2.686 11.8917 2.76757 11.8525 2.86294L11.0735 5.58894C10.7274 6.81653 10.0721 7.93477 9.17018 8.83664C8.26831 9.73852 7.15007 10.3939 5.92248 10.7399L3.19648 11.5189C3.09181 11.5487 2.99969 11.6117 2.9341 11.6985C2.8685 11.7853 2.83301 11.8911 2.83301 11.9999C2.83301 12.1087 2.8685 12.2146 2.9341 12.3014C2.99969 12.3882 3.09181 12.4512 3.19648 12.4809L5.92248 13.2599C7.15007 13.606 8.26831 14.2614 9.17018 15.1632C10.0721 16.0651 10.7274 17.1834 11.0735 18.4109L11.8525 21.1369C11.8822 21.2416 11.9452 21.3337 12.032 21.3993C12.1188 21.4649 12.2247 21.5004 12.3335 21.5004C12.4423 21.5004 12.5481 21.4649 12.6349 21.3993C12.7217 21.3337 12.7848 21.2416 12.8145 21.1369L13.5935 18.4109C13.9396 17.1834 14.5949 16.0651 15.4968 15.1632C16.3987 14.2614 17.5169 13.606 18.7445 13.2599L21.4705 12.4809C21.5752 12.4512 21.6673 12.3882 21.7329 12.3014C21.7985 12.2146 21.834 12.1087 21.834 11.9999C21.834 11.8911 21.7985 11.7853 21.7329 11.6985C21.6673 11.6117 21.5752 11.5487 21.4705 11.5189Z" fill="white"/>
</svg>
